<?xml version="1.0" encoding="utf-8"?>
<!--
  Spectre icon for the Arduino IDE AI assistant.

  @author Tazul Islam
-->
<svg xmlns="http://www.w3.org/2000/svg" height="24px" viewBox="0 -960 960 960" width="24px" fill="#5f6368">
  <path d="M 272.202 -11.217 C 262.497 -11.217 253.454 -13.908 245.071 -19.263 C 236.688 -24.632 230.29 -32.197 225.877 -41.947 L 122.641 -245.31 L 199.407 -245.31 L 252.349 -128.27 L 374.116 -128.27 L 374.116 -186.79 L 284.114 -186.79 L 231.171 -303.85 L 93.522 -303.85 L 18.08 -450.15 C 16.316 -455.01 14.771 -459.9 13.447 -464.78 C 12.124 -469.64 11.462 -474.54 11.462 -479.4 C 11.462 -483.32 13.669 -493.06 18.08 -508.66 L 93.522 -654.98 L 231.171 -654.98 L 284.114 -772.01 L 374.116 -772.01 L 374.116 -830.54 L 252.349 -830.54 L 199.407 -713.5 L 122.641 -713.5 L 225.877 -916.86 C 230.29 -926.63 236.688 -934.2 245.071 -939.56 C 253.454 -944.92 262.497 -947.6 272.202 -947.6 L 400.587 -947.6 C 415.588 -947.6 428.163 -942 438.31 -930.76 C 448.456 -919.58 453.53 -905.66 453.53 -889.08 L 453.53 -654.98 L 374.116 -654.98 L 321.174 -596.45 L 453.53 -596.45 L 453.53 -420.88 L 337.057 -420.88 L 284.114 -537.91 L 162.346 -537.91 L 109.405 -479.4 L 252.349 -479.4 L 305.292 -362.35 L 453.53 -362.35 L 453.53 -69.726 C 453.53 -53.17 448.456 -39.27 438.31 -28.042 C 428.163 -16.835 415.588 -11.217 400.587 -11.217 L 272.202 -11.217 Z M 559.414 -11.217 C 544.414 -11.217 531.84 -16.835 521.693 -28.042 C 511.546 -39.27 506.472 -53.17 506.472 -69.726 L 506.472 -362.35 L 654.71 -362.35 L 707.653 -479.4 L 850.596 -479.4 L 797.654 -537.91 L 675.887 -537.91 L 622.945 -420.88 L 506.472 -420.88 L 506.472 -596.45 L 638.828 -596.45 L 585.885 -654.98 L 506.472 -654.98 L 506.472 -889.08 C 506.472 -905.66 511.546 -919.58 521.693 -930.76 C 531.84 -942 544.414 -947.6 559.414 -947.6 L 687.8 -947.6 C 697.505 -947.6 706.55 -944.92 714.932 -939.56 C 723.315 -934.2 729.711 -926.63 734.123 -916.86 L 837.361 -713.5 L 760.594 -713.5 L 707.653 -830.54 L 585.885 -830.54 L 585.885 -772.01 L 675.887 -772.01 L 728.83 -654.98 L 866.479 -654.98 L 941.922 -508.66 C 943.688 -503.79 945.232 -498.93 946.555 -494.02 C 947.878 -489.18 948.54 -484.3 948.54 -479.4 C 948.54 -475.5 946.335 -465.75 941.922 -450.15 L 866.479 -303.85 L 728.83 -303.85 L 675.887 -186.79 L 585.885 -186.79 L 585.885 -128.27 L 707.653 -128.27 L 760.594 -245.31 L 837.361 -245.31 L 734.123 -41.947 C 729.711 -32.197 723.315 -24.632 714.932 -19.263 C 706.55 -13.908 697.505 -11.217 687.8 -11.217 L 559.414 -11.217 Z" style=""/>
</svg>